<svg width="1301" height="1301" viewBox="0 0 1301 1301" xmlns="http://www.w3.org/2000/svg"><title>Group 9</title><g fill="none" fill-rule="evenodd"><circle fill="#19A974" cx="650.5" cy="650.5" r="650.5"/><path d="M744.359 862.903l-94.938-94.938-94.938 94.938c-52.432 52.432-52.432 137.443 0 189.875 52.433 52.433 137.443 52.433 189.876 0 52.433-52.432 52.433-137.443 0-189.875zm46.39-46.39c77.458 77.457 77.458 203.04 0 280.498-77.457 77.457-203.04 77.457-280.498 0-77.458-77.458-77.458-203.04 0-280.498L650.5 676.263l140.25 140.25z" fill="#FFF"/><path d="M437.815 556.359l94.938 94.938-94.938 94.938c-52.432 52.432-137.443 52.432-189.875 0-52.433-52.433-52.433-137.443 0-189.876 52.432-52.433 137.443-52.433 189.875 0zm46.39-46.39c-77.457-77.458-203.04-77.458-280.498 0-77.457 77.457-77.457 203.04 0 280.498 77.458 77.458 203.041 77.458 280.498 0l140.25-140.249-140.25-140.25z" fill="#333"/><path d="M437.815 556.359l94.938 94.938-94.938 94.938c-52.432 52.432-137.443 52.432-189.875 0l-44.233 44.232c77.458 77.458 203.041 77.458 280.498 0l140.25-140.249-140.25-140.25-46.39 46.391z" fill="#FFF"/><path d="M863.185 744.077l-94.938-94.938 94.938-94.938c52.432-52.432 137.443-52.432 189.875 0 52.433 52.433 52.433 137.443 0 189.876-52.432 52.433-137.443 52.433-189.875 0zm-46.39 46.39c77.457 77.458 203.04 77.458 280.498 0 77.457-77.457 77.457-203.04 0-280.498-77.458-77.458-203.041-77.458-280.498 0l-140.25 140.249 140.25 140.25zM556.641 437.533l94.938 94.938 94.938-94.938c52.432-52.432 52.432-137.443 0-189.875-52.433-52.433-137.443-52.433-189.876 0-52.433 52.432-52.433 137.443 0 189.875zm-46.39 46.39c-77.458-77.457-77.458-203.04 0-280.498 77.457-77.457 203.04-77.457 280.498 0 77.458 77.458 77.458 203.041 0 280.498L650.5 624.173l-140.25-140.25z" fill="#333"/></g></svg>